<?xml version="1.0" encoding="utf-8"?>
<!-- Generator: Adobe Illustrator 24.1.2, SVG Export Plug-In . SVG Version: 6.00 Build 0)  -->
<svg version="1.1" id="Layer_1" xmlns="http://www.w3.org/2000/svg" xmlns:xlink="http://www.w3.org/1999/xlink" x="0px" y="0px"
	 viewBox="0 0 74.2 74.2" style="enable-background:new 0 0 74.2 74.2;" xml:space="preserve">
<style type="text/css">
	.st0{fill:#FFFFFF;}
</style>
<path class="st0" d="M24,16.2h10.9l-9.5,34.5c0,0-1.5,9.1-12.4,5.6l0.4-1.2c0,0,3.3-0.8,5.1-7.2c1.8-6.4,7.2-26.5,7.2-26.5
	s1.2-3.5-2.3-3.7L24,16.2z"/>
<path class="st0" d="M50.7,48.9h9l0.6-1.5c-1.2-0.1-2.7-0.3-3.5-3.2l-3.5-12.4l-3.6,14L50.7,48.9z"/>
<path class="st0" d="M42.5,43.8l7.6-27.6H39.2l-0.6,1.5c3.5,0.2,2.3,3.7,2.3,3.7l-7.5,27.5h10.9l0.6-1.5
	C41.4,47.3,42.5,43.8,42.5,43.8z"/>
</svg>
